HIERARCHY
ROOT hip
{
  OFFSET 20.916 84.2312 -62.7276
  CHANNELS 6 Xposition Yposition Zposition Zrotation Xrotation Yrotation
  JOINT abdomen
  {
    OFFSET 0 20.6881 -0.73152
    CHANNELS 3 Zrotation Xrotation Yrotation
    JOINT chest
    {
      OFFSET 0 11.7043 -0.48768
      CHANNELS 3 Zrotation Xrotation Yrotation
      JOINT neck
      {
        OFFSET 0 22.1894 -2.19456
        CHANNELS 3 Zrotation Xrotation Yrotation
        JOINT head
        {
          OFFSET -0.24384 7.07133 1.2192
          CHANNELS 3 Zrotation Xrotation Yrotation
          JOINT leftEye
          {
            OFFSET 4.14528 8.04674 8.04672
            CHANNELS 3 Zrotation Xrotation Yrotation
            End Site
            {
              OFFSET 1 0 0
            }
          }
          JOINT rightEye
          {
            OFFSET -3.6576 8.04674 8.04672
            CHANNELS 3 Zrotation Xrotation Yrotation
            End Site
            {
              OFFSET 1 0 0
            }
          }
        }
      }
      JOINT rCollar
      {
        OFFSET -2.68224 19.2634 -4.8768
        CHANNELS 3 Zrotation Xrotation Yrotation
        JOINT rShldr
        {
          OFFSET -8.77824 -1.95073 1.46304
          CHANNELS 3 Zrotation Xrotation Yrotation
          JOINT rForeArm
          {
            OFFSET -28.1742 -1.7115 0.48768
            CHANNELS 3 Zrotation Xrotation Yrotation
            JOINT rHand
            {
              OFFSET -22.5879 0.773209 7.07136
              CHANNELS 3 Zrotation Xrotation Yrotation
              JOINT rThumb1
              {
                OFFSET -1.2192 -0.487915 3.41376
                CHANNELS 3 Zrotation Xrotation Yrotation
                JOINT rThumb2
                {
                  OFFSET -3.37035 -0.52449 3.41376
                  CHANNELS 3 Zrotation Xrotation Yrotation
                  End Site
                  {
                    OFFSET -1.78271 -1.18214 1.43049
                  }
                }
              }
              JOINT rIndex1
              {
                OFFSET -7.75947 0.938293 5.60832
                CHANNELS 3 Zrotation Xrotation Yrotation
                JOINT rIndex2
                {
                  OFFSET -2.54057 -0.884171 1.56538
                  CHANNELS 3 Zrotation Xrotation Yrotation
                  End Site
                  {
                    OFFSET -1.62519 -0.234802 1.16502
                  }
                }
              }
              JOINT rMid1
              {
                OFFSET -8.24714 1.18213 3.41376
                CHANNELS 3 Zrotation Xrotation Yrotation
                JOINT rMid2
                {
                  OFFSET -3.10165 -0.590103 1.0647
                  CHANNELS 3 Zrotation Xrotation Yrotation
                  End Site
                  {
                    OFFSET -2.48547 -0.328903 0.83742
                  }
                }
              }
              JOINT rRing1
              {
                OFFSET -8.82822 0.546677 1.51678
                CHANNELS 3 Zrotation Xrotation Yrotation
                JOINT rRing2
                {
                  OFFSET -2.60934 -0.819778 -0.0198488
                  CHANNELS 3 Zrotation Xrotation Yrotation
                  End Site
                  {
                    OFFSET -2.33842 -0.294052 0.168128
                  }
                }
              }
              JOINT rPinky1
              {
                OFFSET -8.27202 -0.0477905 -0.4584
                CHANNELS 3 Zrotation Xrotation Yrotation
                JOINT rPinky2
                {
                  OFFSET -1.82734 -0.647385 -0.700984
                  CHANNELS 3 Zrotation Xrotation Yrotation
                  End Site
                  {
                    OFFSET -1.69225 -0.51767 -0.607171
                  }
                }
              }
            }
          }
        }
      }
      JOINT lCollar
      {
        OFFSET 2.68224 19.2634 -4.8768
        CHANNELS 3 Zrotation Xrotation Yrotation
        JOINT lShldr
        {
          OFFSET 8.77824 -1.95073 1.46304
          CHANNELS 3 Zrotation Xrotation Yrotation
          JOINT lForeArm
          {
            OFFSET 28.1742 -1.7115 0.48768
            CHANNELS 3 Zrotation Xrotation Yrotation
            JOINT lHand
            {
              OFFSET 22.5879 0.773209 7.07136
              CHANNELS 3 Zrotation Xrotation Yrotation
              JOINT lThumb1
              {
                OFFSET 1.2192 -0.487915 3.41376
                CHANNELS 3 Zrotation Xrotation Yrotation
                JOINT lThumb2
                {
                  OFFSET 3.37035 -0.52449 3.41376
                  CHANNELS 3 Zrotation Xrotation Yrotation
                  End Site
                  {
                    OFFSET 1.78271 -1.18214 1.43049
                  }
                }
              }
              JOINT lIndex1
              {
                OFFSET 7.75947 0.938293 5.60832
                CHANNELS 3 Zrotation Xrotation Yrotation
                JOINT lIndex2
                {
                  OFFSET 2.54057 -0.884171 1.56538
                  CHANNELS 3 Zrotation Xrotation Yrotation
                  End Site
                  {
                    OFFSET 1.62519 -0.234802 1.16502
                  }
                }
              }
              JOINT lMid1
              {
                OFFSET 8.24714 1.18213 3.41376
                CHANNELS 3 Zrotation Xrotation Yrotation
                JOINT lMid2
                {
                  OFFSET 3.10165 -0.590103 1.0647
                  CHANNELS 3 Zrotation Xrotation Yrotation
                  End Site
                  {
                    OFFSET 2.48547 -0.328903 0.83742
                  }
                }
              }
              JOINT lRing1
              {
                OFFSET 8.82822 0.546677 1.51678
                CHANNELS 3 Zrotation Xrotation Yrotation
                JOINT lRing2
                {
                  OFFSET 2.60934 -0.819778 -0.0198488
                  CHANNELS 3 Zrotation Xrotation Yrotation
                  End Site
                  {
                    OFFSET 2.33842 -0.294052 0.168128
                  }
                }
              }
              JOINT lPinky1
              {
                OFFSET 8.27202 -0.0477905 -0.4584
                CHANNELS 3 Zrotation Xrotation Yrotation
                JOINT lPinky2
                {
                  OFFSET 1.82734 -0.647385 -0.700984
                  CHANNELS 3 Zrotation Xrotation Yrotation
                  End Site
                  {
                    OFFSET 1.69225 -0.51767 -0.607171
                  }
                }
              }
            }
          }
        }
      }
    }
  }
  JOINT rButtock
  {
    OFFSET -8.77824 4.35084 1.2192
    CHANNELS 3 Zrotation Xrotation Yrotation
    JOINT rThigh
    {
      OFFSET 0 -1.70687 -2.19456
      CHANNELS 3 Zrotation Xrotation Yrotation
      JOINT rShin
      {
        OFFSET 0 -36.8199 0.73152
        CHANNELS 3 Zrotation Xrotation Yrotation
        JOINT rFoot
        {
          OFFSET 0.73152 -45.1104 -5.12064
          CHANNELS 3 Zrotation Xrotation Yrotation
          End Site
          {
            OFFSET -1.1221 -3.69964 12.103
          }
        }
      }
    }
  }
  JOINT lButtock
  {
    OFFSET 8.77824 4.35084 1.2192
    CHANNELS 3 Zrotation Xrotation Yrotation
    JOINT lThigh
    {
      OFFSET 0 -1.70687 -2.19456
      CHANNELS 3 Zrotation Xrotation Yrotation
      JOINT lShin
      {
        OFFSET 0 -36.8199 0.73152
        CHANNELS 3 Zrotation Xrotation Yrotation
        JOINT lFoot
        {
          OFFSET -0.73152 -45.1104 -5.12064
          CHANNELS 3 Zrotation Xrotation Yrotation
          End Site
          {
            OFFSET 1.1221 -3.69964 12.103
          }
        }
      }
    }
  }
}
MOTION
Frames:	8
Frame Time:	0.00833333
60.3618 85.415 2.16982 -1.27366 0.00383548 0.0239684 1.67536 -0.00249559 0.0455944 0.461928 0.00238692 0.0799903 -2.51313e-014 7.95139e-016 -9.93923e-017 -7.54357e-014 9.54166e-015 -1.78596e-016 -0 0 0 -0 0 0 -1.24755e-014 -5.24139e-018 1.49089e-016 -2.67277e-013 1.2424e-016 -3.97569e-016 -4.60862e-012 1.37181e-012 2.22639e-014 -5.26512e-011 -1.39e-012 -1.84472e-013 -1.2422e-010 -4.36933e-014 -3.11694e-013 -2.14539e-010 -7.63333e-014 -5.34333e-013 -1.24217e-010 -4.33351e-014 -3.18055e-013 7.73091 5.47488 0.417314 -1.24221e-010 -4.3832e-014 -3.11694e-013 2.90554 0.965183 0.102902 -1.24218e-010 -4.37326e-014 -3.08514e-013 10.2786 0.731801 0.0259123 -1.24231e-010 -4.09496e-014 -2.95792e-013 2.22167 -0.733487 -0.20892 -1.2771e-014 -7.37677e-018 -2.48481e-016 -2.68016e-013 -1.49089e-016 -1.78906e-015 -4.59043e-012 -1.38553e-012 3.81667e-014 -5.26608e-011 1.35439e-012 -1.74931e-013 -1.24197e-010 -6.66991e-014 -3.05333e-013 -2.14475e-010 -1.20861e-013 -5.23201e-013 -1.24199e-010 -6.79844e-014 -2.98972e-013 -7.73091 5.47488 -0.417314 -1.24196e-010 -6.69904e-014 -3.05333e-013 -2.90554 0.965183 -0.102902 -1.24202e-010 -6.61953e-014 -3.04538e-013 -10.2786 0.731801 -0.0259123 -1.24192e-010 -6.2816e-014 -3.18055e-013 -2.22167 -0.733487 0.20892 -2.03217e-016 0 -3.88251e-019 1.77127 -6.79372 -0.16802 0.0030608 6.74206 0.0830198 -0.520452 0.0465723 0.0600472 2.03217e-016 0 3.88251e-019 0.777898 -1.92427 0.00415742 0.00908631 -2.07858 0.0749395 0.49324 3.99766 -0.137522 
56.0933 84.3773 -0.584445 8.76957 -11.186 -24.1557 1.47562 -2.18248 1.06055 1.00837 1.05518 0.353231 0.0231862 1.61017 0.459961 -3.35566 -4.17689 0.390813 -0 0 0 -0 0 0 -1.48407e-014 3.38847e-013 -4.6841e-014 18.3608 -3.63203 -3.70153 -4.79803 -2.30898 7.34897 0.00658499 -1.80046 -0.252586 -1.10755e-009 1.05778e-009 -1.01258e-009 -1.91112e-009 1.83489e-009 -1.75514e-009 -1.10755e-009 1.05778e-009 -1.01258e-009 7.73091 5.47488 0.417314 -1.10755e-009 1.05778e-009 -1.01257e-009 2.90554 0.965183 0.102902 -1.10755e-009 1.05778e-009 -1.01257e-009 10.2786 0.731801 0.0259123 -1.10756e-009 1.05778e-009 -1.01256e-009 2.22167 -0.733487 -0.20892 -1.51069e-014 3.38842e-013 -4.71659e-014 -16.7872 5.97241 0.659369 6.76407 -3.83378 -9.61094 -0.127796 -7.94414 1.0781 1.77932e-010 -1.10927e-009 -3.57652e-010 3.19554e-010 -1.9108e-009 -6.13572e-010 1.77929e-010 -1.10927e-009 -3.57647e-010 -7.73091 5.47488 -0.417314 1.77932e-010 -1.10927e-009 -3.57651e-010 -2.90554 0.965183 -0.102902 1.77927e-010 -1.10927e-009 -3.5765e-010 -10.2786 0.731801 -0.0259123 1.77937e-010 -1.10927e-009 -3.57661e-010 -2.22167 -0.733487 0.20892 -2.03217e-016 0 -3.88251e-019 -0.645083 -9.12602 7.32306 0.0217782 11.3675 0.161011 -1.73991 -1.84118 -13.475 2.03217e-016 0 3.88251e-019 2.07616 -5.19454 -1.64581 0.00450572 4.12345 -0.0472225 1.23114 1.96484 9.96744 
56.4266 84.4839 -1.74552 10.1668 -16.2597 -51.5055 1.34266 -4.47927 2.14021 1.57379 2.17427 0.642996 0.01824 3.28486 0.941841 -6.83284 -8.57388 0.803381 -0 0 0 -0 0 0 -1.82252e-014 7.14836e-013 -9.95725e-014 37.2462 -7.43777 -7.65834 -9.22698 -4.61952 15.1487 -0.00374144 -3.69998 -0.519918 -2.20242e-009 2.23481e-009 -2.13411e-009 -3.80016e-009 3.87665e-009 -3.69916e-009 -2.20242e-009 2.23482e-009 -2.13412e-009 7.73091 5.47488 0.417314 -2.20242e-009 2.2348e-009 -2.1341e-009 2.90554 0.965183 0.102902 -2.20242e-009 2.23481e-009 -2.13411e-009 10.2786 0.731801 0.0259123 -2.20243e-009 2.23481e-009 -2.1341e-009 2.22167 -0.733487 -0.20892 -1.84642e-014 7.14829e-013 -9.98179e-014 -34.625 12.3 1.33065 12.5606 -7.55219 -19.9438 0.0745771 -16.3353 2.2893 5.07385e-010 -2.33304e-009 -7.50369e-010 9.02011e-010 -4.01891e-009 -1.28733e-009 5.07382e-010 -2.33304e-009 -7.50364e-010 -7.73091 5.47488 -0.417314 5.07385e-010 -2.33304e-009 -7.50366e-010 -2.90554 0.965183 -0.102902 5.0738e-010 -2.33304e-009 -7.50364e-010 -10.2786 0.731801 -0.0259123 5.0739e-010 -2.33304e-009 -7.50372e-010 -2.22167 -0.733487 0.20892 -2.03217e-016 0 -3.88251e-019 -2.52591 -11.3438 15.4082 0.026324 16.2674 0.244018 -3.84145 -3.21915 -27.9297 2.03217e-016 0 3.88251e-019 3.2384 -8.64272 -3.42372 0.0291558 10.6781 -0.177903 2.75919 -0.070724 20.643 
56.6434 84.4561 -2.31161 8.59649 -11.1869 -74.6098 1.30901 -6.53403 3.10836 2.07108 3.16043 0.900904 -0.00822516 4.82925 1.38425 -9.8925 -12.5283 1.19785 -0 0 0 -0 0 0 -1.9571e-014 1.01655e-012 -1.40821e-013 53.6631 -10.7128 -11.2814 -12.6564 -6.47209 22.1777 -0.0280478 -5.40094 -0.760763 -3.07421e-009 3.17343e-009 -3.0371e-009 -5.30427e-009 5.50481e-009 -5.26434e-009 -3.07421e-009 3.17343e-009 -3.03712e-009 7.73091 5.47488 0.417314 -3.07421e-009 3.17341e-009 -3.03709e-009 2.90554 0.965183 0.102902 -3.0742e-009 3.17343e-009 -3.03711e-009 10.2786 0.731801 0.0259123 -3.07422e-009 3.17343e-009 -3.0371e-009 2.22167 -0.733487 -0.20892 -1.97787e-014 1.01654e-012 -1.41001e-013 -50.7918 17.9075 2.06758 16.5643 -10.2084 -29.2749 0.583783 -23.797 3.50127 7.82189e-010 -3.32767e-009 -1.07235e-009 1.38761e-009 -5.73215e-009 -1.83967e-009 7.82186e-010 -3.32767e-009 -1.07234e-009 -7.73091 5.47488 -0.417314 7.82188e-010 -3.32767e-009 -1.07234e-009 -2.90554 0.965183 -0.102902 7.82184e-010 -3.32767e-009 -1.07234e-009 -10.2786 0.731801 -0.0259123 7.82194e-010 -3.32767e-009 -1.07235e-009 -2.22167 -0.733487 0.20892 -2.03217e-016 0 -3.88251e-019 -3.67465 -12.9709 22.6314 0.0187937 20.6182 0.32979 -6.61403 -4.38507 -40.6678 2.03217e-016 0 3.88251e-019 4.09774 -11.6975 -5.0302 0.0769678 16.5273 -0.303626 4.77223 -1.73831 30.1743 
56.6372 84.4549 -2.26687 8.95805 -2.36321 -87.6391 1.35913 -7.99174 3.78086 2.41971 3.81457 1.07802 -0.0372589 6.04898 1.7243 -12.0259 -15.3784 1.52458 -0 0 0 -0 0 0 -1.582e-014 1.13258e-012 -1.53362e-013 64.922 -12.8363 -13.8983 -14.7894 -7.60934 27.1563 -0.0538212 -6.60589 -0.932574 -3.38829e-009 3.51599e-009 -3.39375e-009 -5.84608e-009 6.09898e-009 -5.88241e-009 -3.38828e-009 3.516e-009 -3.39376e-009 7.73091 5.47488 0.417314 -3.38829e-009 3.51598e-009 -3.39373e-009 2.90554 0.965183 0.102902 -3.38828e-009 3.51599e-009 -3.39375e-009 10.2786 0.731801 0.0259123 -3.38829e-009 3.51599e-009 -3.39374e-009 2.22167 -0.733487 -0.20892 -1.59865e-014 1.13257e-012 -1.53511e-013 -62.5219 21.7203 2.89795 18.7244 -11.4872 -35.6661 1.15327 -28.9687 4.46228 9.2037e-010 -3.74947e-009 -1.21748e-009 1.63106e-009 -6.45821e-009 -2.08847e-009 9.20366e-010 -3.74948e-009 -1.21748e-009 -7.73091 5.47488 -0.417314 9.20369e-010 -3.74948e-009 -1.21748e-009 -2.90554 0.965183 -0.102902 9.20365e-010 -3.74948e-009 -1.21747e-009 -10.2786 0.731801 -0.0259123 9.20375e-010 -3.74948e-009 -1.21748e-009 -2.22167 -0.733487 0.20892 -2.03217e-016 0 -3.88251e-019 -4.26775 -13.8468 27.4408 0.00770274 23.5966 0.412639 -9.96032 -5.82795 -49.0769 2.03217e-016 0 3.88251e-019 4.61433 -13.8044 -6.13124 0.125736 20.6132 -0.404587 6.63421 -2.8888 36.8157 
56.6207 84.5336 -2.22276 9.66153 2.12217 -91.8854 1.46808 -8.63452 4.03285 2.57414 4.00023 1.14226 -0.0672008 6.86366 1.90996 -12.914 -16.7034 1.72315 -0 0 0 -0 0 0 3.15772e-016 9.77406e-013 -1.19432e-013 69.3925 -13.4853 -15.0087 -15.6059 -8.04298 29.2017 -0.0672591 -7.14933 -1.01042 -2.91531e-009 2.91782e-009 -2.95721e-009 -5.03005e-009 5.06137e-009 -5.12536e-009 -2.9153e-009 2.91782e-009 -2.95722e-009 7.73091 5.47488 0.417314 -2.91531e-009 2.91781e-009 -2.95719e-009 2.90554 0.965183 0.102902 -2.9153e-009 2.91782e-009 -2.95721e-009 10.2786 0.731801 0.0259123 -2.91531e-009 2.91782e-009 -2.9572e-009 2.22167 -0.733487 -0.20892 2.16971e-016 9.77398e-013 -1.19604e-013 -67.8776 22.9933 3.80761 19.3021 -11.6823 -37.738 1.43259 -30.9953 4.87532 8.91991e-010 -3.25777e-009 -1.04722e-009 1.57687e-009 -5.60844e-009 -1.79462e-009 8.91987e-010 -3.25777e-009 -1.04721e-009 -7.73091 5.47488 -0.417314 8.91988e-010 -3.25777e-009 -1.04722e-009 -2.90554 0.965183 -0.102902 8.91985e-010 -3.25777e-009 -1.04721e-009 -10.2786 0.731801 -0.0259123 8.91996e-010 -3.25777e-009 -1.04721e-009 -2.22167 -0.733487 0.20892 -2.03217e-016 0 -3.88251e-019 -4.58901 -14.0795 28.6905 0.00621169 24.6293 0.491506 -14.0262 -8.72124 -51.4113 2.03217e-016 0 3.88251e-019 4.86542 -14.6228 -6.43017 0.147735 22.2444 -0.461947 7.7612 -3.70168 39.3269 
56.6141 84.5859 -2.20747 9.57219 1.70089 -91.522 1.60068 -8.69609 3.98067 2.59164 3.85148 1.12563 -0.0905399 7.38696 1.98488 -12.9292 -16.9387 1.82497 -0 0 0 -0 0 0 2.50479e-014 6.29051e-013 -5.26065e-014 69.1182 -13.1164 -15.0118 -15.5917 -8.06086 29.1345 -0.0681879 -7.2188 -1.02032 -1.88044e-009 1.65275e-009 -1.95545e-009 -3.24465e-009 2.86698e-009 -3.38841e-009 -1.88044e-009 1.65276e-009 -1.95546e-009 7.73091 5.47488 0.417314 -1.88044e-009 1.65275e-009 -1.95544e-009 2.90554 0.965183 0.102902 -1.88043e-009 1.65275e-009 -1.95545e-009 10.2786 0.731801 0.0259123 -1.88045e-009 1.65275e-009 -1.95544e-009 2.22167 -0.733487 -0.20892 2.50351e-014 6.29046e-013 -5.28394e-014 -68.6051 22.4543 4.73993 18.9129 -11.303 -36.6986 1.40128 -30.7821 4.83068 7.43464e-010 -2.11887e-009 -6.54906e-010 1.30809e-009 -3.64231e-009 -1.11876e-009 7.4346e-010 -2.11888e-009 -6.54904e-010 -7.73091 5.47488 -0.417314 7.4346e-010 -2.11888e-009 -6.54912e-010 -2.90554 0.965183 -0.102902 7.43457e-010 -2.11888e-009 -6.54903e-010 -10.2786 0.731801 -0.0259123 7.43469e-010 -2.11888e-009 -6.54906e-010 -2.22167 -0.733487 0.20892 -2.03217e-016 0 -3.88251e-019 -4.80093 -13.9431 27.3838 0.0171473 24.2735 0.564473 -18.1303 -13.3146 -49.6876 2.03217e-016 0 3.88251e-019 4.96741 -14.5264 -6.14462 0.142625 22.1217 -0.484386 8.21421 -4.40465 38.8828 
56.607 84.6 -2.21177 9.15688 -0.718118 -89.3383 1.71756 -8.50056 3.79833 2.54707 3.57518 1.07509 -0.0779949 7.71577 2.02896 -12.6047 -16.7068 1.9139 -0 0 0 -0 0 0 4.48197e-014 2.21411e-013 1.73265e-014 66.9773 -12.3181 -14.546 -15.244 -7.91107 28.2099 -0.0627849 -7.04646 -0.995517 -6.30836e-010 2.90956e-010 -7.72888e-010 -1.08845e-009 5.04584e-010 -1.33817e-009 -6.30836e-010 2.90959e-010 -7.72898e-010 7.73091 5.47488 0.417314 -6.30838e-010 2.90953e-010 -7.72886e-010 2.90554 0.965183 0.102902 -6.30831e-010 2.90956e-010 -7.72889e-010 10.2786 0.731801 0.0259123 -6.30845e-010 2.90955e-010 -7.72882e-010 2.22167 -0.733487 -0.20892 4.48802e-014 2.21409e-013 1.70248e-014 -67.4698 21.2396 5.65289 18.0978 -10.6569 -34.436 1.24037 -29.6177 4.59254 5.07336e-010 -8.99564e-010 -2.82266e-010 8.87318e-010 -1.53967e-009 -4.78414e-010 5.07333e-010 -8.99565e-010 -2.82264e-010 -7.73091 5.47488 -0.417314 5.07332e-010 -8.99568e-010 -2.82277e-010 -2.90554 0.965183 -0.102902 5.07329e-010 -8.99564e-010 -2.82265e-010 -10.2786 0.731801 -0.0259123 5.07342e-010 -8.99563e-010 -2.82269e-010 -2.22167 -0.733487 0.20892 -2.03217e-016 0 -3.88251e-019 -4.93389 -13.6585 25.1775 0.0342361 23.4011 0.623511 -21.1639 -18.5074 -46.7233 2.03217e-016 0 3.88251e-019 4.96414 -14.0395 -5.69651 0.125685 21.2754 -0.489951 8.31732 -5.0291 37.34 
